<svg data-name="Layer 1" viewBox="0 0 100 100" xmlns="http://www.w3.org/2000/svg">
  <path d="M6.19 87.21zM93.81 87.21a11.65 11.65 0 00-1.86-5 15.07 15.07 0 00-9.44-5.9 91.55 91.55 0 01-16.66-5.24 5.39 5.39 0 01-3-3.87 9 9 0 01-.18-3.05q.12-1.2.28-2.45c.32-2.58.73-5.38 1.27-8.48a39.51 39.51 0 002.3-3.38c3.9-6.49 6.07-13.68 6-20a24.76 24.76 0 00-6.16-16.66C62.37 8.6 56.68 5.05 50 5s-12.33 3.6-16.31 8.19a24.76 24.76 0 00-6.16 16.66c0 6.28 2.12 13.47 6 20a39.59 39.59 0 002.26 3.32c.55 3.12 1 5.94 1.28 8.54q.17 1.36.3 2.64a8 8 0 01-.2 2.86 5.39 5.39 0 01-3 3.87 91.55 91.55 0 01-16.66 5.24 15.07 15.07 0 00-9.44 5.9 11.65 11.65 0 00-1.86 5C5.92 89.19 5 94.3 5 95h90c0-.7-.92-5.81-1.19-7.79zM30.35 29.87v-.05A21.85 21.85 0 0135.81 15c2.32-2.67 7.24-7.15 14.2-7.22S61.9 12.36 64.21 15a21.87 21.87 0 015.48 14.8v.05c0 5.74-2 12.48-5.61 18.48C61.65 52.32 56.61 59 50 59s-11.62-6.68-14-10.63c-3.65-6.02-5.7-12.76-5.65-18.5zM8.25 92.19l.17-1c.23-1.4.45-2.72.57-3.57a8.81 8.81 0 011.41-3.83A12.29 12.29 0 0118.08 79a94.41 94.41 0 0017.17-5.4 8.16 8.16 0 004.67-5.79 10.82 10.82 0 00.27-3.81c-.09-.88-.19-1.77-.3-2.7-.17-1.42-.38-2.87-.6-4.34C42.38 59.87 46 61.8 50 61.82s7.63-1.93 10.71-4.82c-.22 1.45-.42 2.89-.6 4.3q-.16 1.28-.28 2.5a11.76 11.76 0 00.25 4 8.16 8.16 0 004.68 5.79A94.37 94.37 0 0081.92 79a12.3 12.3 0 017.7 4.72A8.82 8.82 0 0191 87.59c.12.85.33 2.17.56 3.57l.17 1z"/>
</svg>
